<?xml version="1.0" encoding="iso-8859-1"?>
<!-- Generator: Adobe Illustrator 24.1.2, SVG Export Plug-In . SVG Version: 6.00 Build 0)  -->
<svg version="1.1" id="drsa_logo" xmlns="http://www.w3.org/2000/svg" xmlns:xlink="http://www.w3.org/1999/xlink" x="0px" y="0px"
	 width="181px" height="44px" viewBox="0 0 280 68" enable-background="new 0 0 280 68" xml:space="preserve">
<path id="kilkoku1" d="M36,2c0,0-24.01,46.41-24.65,56.73c-0.63,10.32,4.78,3.12,5.54,0.12c0.76-3,2.84-11.86,5.82-21.26
	C25.84,27.73,36,2,36,2"/>
<path id="kilkoku2" d="M44.42,17.68c0,0-16.62,34.42-16.87,42s3.57,2.21,4.06,0c0.49-2.21,1.83-8.74,3.82-15.68
	C37.52,36.71,44.42,17.68,44.42,17.68"/>
<path id="kilkoku3" d="M49.43,32.05c0,0-11.33,23.45-11.49,28.62c-0.17,5.16,2.43,1.51,2.77,0s1.24-5.95,2.6-10.69
	C44.73,45.02,49.43,32.05,49.43,32.05"/>
<rect id="aracizgi" x="1" y="41.76" width="56.13" height="0.43"/>
<path id="Dr" d="M71.8,39.39h-2.13v-9.16h1.87c1.71,0,2.98,0.4,3.81,1.2c0.83,0.8,1.24,1.93,1.24,3.41s-0.41,2.61-1.24,3.38
	C74.53,39,73.34,39.39,71.8,39.39 M101.53,41.44c0.3-0.34,0.45-0.77,0.45-1.27s-0.18-0.94-0.55-1.3c-0.37-0.37-0.82-0.55-1.35-0.55
	s-0.98,0.18-1.35,0.55c-0.36,0.37-0.55,0.81-0.55,1.32s0.14,0.93,0.43,1.26h-0.93h-0.71h-1.31l-3.15-4.46
	c1.91-0.7,2.87-2.26,2.87-4.68c0-1.75-0.5-3.03-1.5-3.81c-1-0.79-2.67-1.19-5.01-1.19h-5.71v14.14H81.3h-0.24h-4.85
	c2.5-1.19,3.75-3.4,3.75-6.62c0-2.38-0.72-4.24-2.15-5.55c-1.44-1.32-3.5-1.97-6.19-1.97h-5.33l-0.02,15.07h14.78h0.24h5.21V34.1
	l0.01,0.01v-3.93h2.52c1.08,0,1.83,0.15,2.26,0.45c0.43,0.3,0.65,0.86,0.65,1.67c0,0.81-0.2,1.4-0.62,1.78
	c-0.42,0.37-1.2,0.56-2.35,0.56h-2.09l4.71,6.86l0.59,0.86h4.78h0.71h5.5v-0.93h-1.64V41.44z"/>
<path id="Serkan" d="M199.52,41.44V27.3h-3.36V37l-7.4-9.7h-3.14v14.14h-2.09h-0.07l-6.1-14.14h-3.26l-6.12,14.14h-1.18l-5.33-7.48
	l6-6.66h-4.16l-5.69,6.19V27.3h-3.36v14.14h-1.14h-0.71h-1.31l-3.15-4.46c1.91-0.7,2.87-2.26,2.87-4.68c0-1.75-0.5-3.03-1.5-3.81
	c-1-0.79-2.67-1.19-5.01-1.19h-5.71v14.14h-0.91h-1.19h-0.91v-2.05h-7.74v-3.13h6.75V33.4h-6.75v-3.1h7.5v-3h-10.86v14.14h-1.86
	h-0.23h-2.52c1.16-0.85,1.74-2.05,1.74-3.6c0-1.25-0.39-2.23-1.19-2.93c-0.79-0.7-1.9-1.23-3.33-1.59
	c-1.43-0.35-2.34-0.66-2.74-0.92s-0.6-0.61-0.6-1.04c0-0.44,0.16-0.79,0.49-1.06c0.32-0.27,0.76-0.4,1.32-0.4
	c1.4,0,2.75,0.5,4.06,1.49l1.7-2.46c-0.75-0.63-1.63-1.12-2.63-1.47c-1.01-0.34-2.01-0.52-3.02-0.52c-1.54,0-2.82,0.39-3.85,1.16
	c-1.02,0.78-1.54,1.88-1.54,3.31s0.41,2.48,1.22,3.15c0.82,0.67,2.1,1.21,3.85,1.63c1.11,0.27,1.85,0.54,2.22,0.81
	s0.56,0.63,0.56,1.08s-0.18,0.81-0.53,1.08s-0.84,0.4-1.46,0.4c-1.38,0-2.88-0.71-4.5-2.13l-2.01,2.46
	c0.65,0.63,1.37,1.15,2.15,1.55h-2.93v0.93h13.52h0.23h13.86h1.19h4.27v-4.81v-2.91V34.1v-3.92h2.52c1.08,0,1.83,0.15,2.26,0.45
	c0.43,0.3,0.65,0.86,0.65,1.67c0,0.81-0.21,1.4-0.62,1.78c-0.42,0.37-1.2,0.56-2.35,0.56h-2.08l5.29,7.72h4.78h0.71h4.51V38.1
	l1.51-1.68l4.42,5.95h1.96h3.08h2.59l1.4-3.25l0,0l1.27-2.95h-0.01l1.9-4.38l4.55,10.58h3.24h2.43h3.02v-9.44l7.18,9.44h5.45v-0.93
	C201.59,41.44,199.52,41.44,199.52,41.44z"/>
<path id="Aygin" d="M276.91,41.44V27.3h-3.36V37l-7.39-9.7h-3.15v14.14h-1.85h-0.24h-1.62V27.3h-3.36v14.14h-1.85h-2.89
	c0.68-0.39,1.26-0.85,1.74-1.4v-5.35h-3.38v4.14c-0.77,0.45-1.75,0.67-2.91,0.67c-1.17,0-2.17-0.43-3.01-1.28s-1.26-1.99-1.26-3.42
	c0-1.42,0.44-2.57,1.32-3.44c0.87-0.87,1.95-1.3,3.23-1.3c0.66,0,1.27,0.11,1.84,0.33c0.57,0.22,1.19,0.63,1.87,1.22l1.74-2.52
	c-1.59-1.42-3.47-2.14-5.64-2.14s-4.01,0.75-5.54,2.24s-2.3,3.35-2.3,5.56c0,1.47,0.33,2.78,0.98,3.93
	c0.65,1.16,1.56,2.07,2.71,2.75h-4.68h-4.98v-5.02l5.22-9.12h-3.64l-3.25,5.6L228,27.3h-3.64l5.22,9.12v5.02h-1.73h-2.5l-6.1-14.14
	H216l-6.13,14.14h-2.48v0.93h5.67l1.4-3.25h0.01l1.27-2.95h-0.01l1.9-4.38l0,0v-0.01l4.55,10.58v0.01h2.41h3.25h10.07h16.17h6.83
	h0.24h5.21v-9.44l7.18,9.44H279v-0.93C279,41.44,276.91,41.44,276.91,41.44z"/>
<path id="Clinic6" d="M74.15,54.49c0,0.09,0,0.17-0.01,0.24c-0.01,0.07-0.02,0.12-0.03,0.18c-0.01,0.05-0.03,0.09-0.05,0.13
	c-0.02,0.04-0.06,0.09-0.12,0.14c-0.05,0.05-0.17,0.14-0.35,0.25c-0.18,0.12-0.4,0.23-0.67,0.34c-0.26,0.11-0.57,0.2-0.91,0.28
	c-0.34,0.08-0.72,0.11-1.12,0.11c-0.7,0-1.34-0.12-1.91-0.35c-0.57-0.23-1.05-0.58-1.45-1.04c-0.4-0.46-0.71-1.02-0.92-1.69
	s-0.32-1.45-0.32-2.32c0-0.9,0.11-1.7,0.35-2.4c0.23-0.7,0.56-1.3,0.98-1.78c0.42-0.49,0.92-0.86,1.5-1.12s1.23-0.38,1.94-0.38
	c0.31,0,0.62,0.03,0.91,0.09s0.57,0.13,0.82,0.22s0.47,0.19,0.67,0.31c0.2,0.12,0.33,0.21,0.41,0.29c0.07,0.08,0.12,0.13,0.15,0.17
	c0.02,0.04,0.04,0.08,0.05,0.14c0.02,0.05,0.03,0.11,0.03,0.19c0.01,0.07,0.01,0.16,0.01,0.26c0,0.11-0.01,0.2-0.02,0.28
	c-0.01,0.08-0.03,0.14-0.05,0.19c-0.03,0.05-0.05,0.09-0.08,0.12s-0.07,0.04-0.12,0.04c-0.08,0-0.19-0.05-0.33-0.16
	s-0.32-0.23-0.54-0.36s-0.49-0.25-0.81-0.36s-0.7-0.16-1.14-0.16c-0.48,0-0.92,0.09-1.32,0.29c-0.39,0.19-0.73,0.47-1.01,0.85
	c-0.28,0.38-0.5,0.83-0.65,1.37c-0.16,0.54-0.23,1.15-0.23,1.84s0.07,1.29,0.22,1.82c0.15,0.52,0.36,0.97,0.64,1.32
	c0.28,0.36,0.62,0.62,1.02,0.8c0.4,0.18,0.86,0.27,1.37,0.27c0.43,0,0.81-0.05,1.13-0.16s0.6-0.23,0.82-0.36
	c0.23-0.13,0.41-0.25,0.56-0.36c0.15-0.11,0.26-0.16,0.34-0.16c0.04,0,0.07,0.01,0.1,0.03s0.05,0.05,0.07,0.1
	c0.01,0.04,0.03,0.11,0.03,0.2C74.14,54.25,74.15,54.36,74.15,54.49"/>
<path id="Clinic5" d="M81.67,55.39c0,0.11-0.01,0.2-0.02,0.28c-0.01,0.07-0.03,0.14-0.06,0.19c-0.02,0.05-0.06,0.09-0.09,0.12
	c-0.04,0.03-0.08,0.04-0.13,0.04h-4.79c-0.13,0-0.25-0.04-0.36-0.13c-0.12-0.09-0.17-0.24-0.17-0.45V45.41
	c0-0.04,0.01-0.08,0.03-0.12c0.02-0.03,0.06-0.06,0.12-0.08c0.06-0.02,0.13-0.04,0.22-0.05c0.09-0.01,0.21-0.02,0.34-0.02
	c0.14,0,0.26,0.01,0.34,0.02c0.1,0.01,0.17,0.03,0.22,0.05c0.06,0.02,0.09,0.05,0.12,0.08c0.02,0.03,0.03,0.07,0.03,0.12v9.36h3.88
	c0.05,0,0.09,0.01,0.13,0.04c0.04,0.03,0.07,0.06,0.09,0.11s0.05,0.11,0.06,0.19C81.66,55.19,81.67,55.28,81.67,55.39"/>
<path id="Clinic4" d="M85.3,55.8c0,0.04-0.01,0.08-0.03,0.12c-0.02,0.03-0.06,0.06-0.12,0.08c-0.06,0.02-0.13,0.03-0.22,0.05
	c-0.09,0.02-0.21,0.02-0.35,0.02c-0.13,0-0.25,0-0.34-0.02s-0.17-0.03-0.23-0.05c-0.06-0.02-0.09-0.05-0.12-0.08
	c-0.02-0.03-0.03-0.07-0.03-0.12V45.41c0-0.05,0.01-0.08,0.04-0.12c0.03-0.03,0.06-0.06,0.13-0.08c0.06-0.02,0.13-0.04,0.23-0.05
	c0.09-0.01,0.2-0.02,0.33-0.02c0.14,0,0.26,0.01,0.35,0.02c0.09,0.01,0.17,0.03,0.22,0.05c0.06,0.02,0.09,0.05,0.12,0.08
	c0.02,0.03,0.03,0.07,0.03,0.12V55.8H85.3z"/>
<path id="Clinic3" d="M96.36,55.42c0,0.11-0.02,0.21-0.06,0.29s-0.09,0.14-0.15,0.19c-0.06,0.05-0.13,0.09-0.2,0.11
	c-0.08,0.02-0.15,0.03-0.23,0.03h-0.47c-0.15,0-0.28-0.01-0.4-0.04c-0.11-0.03-0.22-0.09-0.32-0.17c-0.1-0.08-0.2-0.19-0.31-0.33
	c-0.1-0.14-0.21-0.32-0.32-0.54l-3.3-6.16c-0.17-0.32-0.35-0.65-0.52-1c-0.18-0.35-0.34-0.68-0.49-1.02h-0.02
	c0.01,0.4,0.02,0.81,0.03,1.23s0.01,0.83,0.01,1.25v6.54c0,0.04-0.01,0.08-0.04,0.11c-0.02,0.04-0.06,0.07-0.12,0.08
	c-0.05,0.02-0.13,0.03-0.22,0.05c-0.09,0.02-0.21,0.02-0.35,0.02s-0.26,0-0.35-0.02s-0.16-0.03-0.22-0.05
	c-0.05-0.02-0.09-0.05-0.12-0.08c-0.02-0.04-0.03-0.08-0.03-0.11v-9.99c0-0.22,0.06-0.38,0.19-0.48c0.12-0.1,0.26-0.14,0.42-0.14
	h0.7c0.17,0,0.31,0.01,0.42,0.04c0.11,0.03,0.21,0.08,0.3,0.14c0.09,0.06,0.18,0.15,0.26,0.27c0.08,0.11,0.17,0.26,0.26,0.43
	l2.54,4.75c0.16,0.29,0.31,0.58,0.45,0.85c0.15,0.28,0.29,0.55,0.42,0.81c0.13,0.27,0.27,0.53,0.4,0.79
	c0.13,0.26,0.26,0.52,0.39,0.78h0.01c-0.01-0.44-0.02-0.9-0.02-1.38s0-0.94,0-1.38v-5.87c0-0.04,0.01-0.07,0.03-0.11
	c0.03-0.03,0.07-0.06,0.12-0.09c0.06-0.02,0.13-0.04,0.22-0.05c0.09-0.01,0.21-0.02,0.36-0.02c0.13,0,0.24,0.01,0.34,0.02
	c0.09,0.01,0.17,0.03,0.22,0.05c0.05,0.03,0.09,0.05,0.11,0.09c0.02,0.04,0.04,0.07,0.04,0.11v10H96.36z"/>
<path id="Clinic2" d="M100.68,55.8c0,0.04-0.01,0.08-0.03,0.12c-0.02,0.03-0.06,0.06-0.12,0.08c-0.06,0.02-0.13,0.03-0.23,0.05
	c-0.09,0.02-0.2,0.02-0.35,0.02c-0.13,0-0.25,0-0.34-0.02c-0.1-0.02-0.17-0.03-0.23-0.05c-0.06-0.02-0.1-0.05-0.12-0.08
	c-0.02-0.03-0.03-0.07-0.03-0.12V45.41c0-0.05,0.01-0.08,0.04-0.12c0.03-0.03,0.07-0.06,0.13-0.08s0.13-0.04,0.22-0.05
	c0.09-0.01,0.2-0.02,0.33-0.02c0.14,0,0.26,0.01,0.35,0.02c0.09,0.01,0.17,0.03,0.23,0.05c0.06,0.02,0.1,0.05,0.12,0.08
	c0.02,0.03,0.03,0.07,0.03,0.12V55.8z"/>
<path id="Clinic1" d="M110.79,54.49c0,0.09,0,0.17-0.01,0.24c0,0.07-0.02,0.12-0.03,0.18c-0.01,0.05-0.03,0.09-0.05,0.13
	c-0.02,0.04-0.06,0.09-0.11,0.14c-0.06,0.05-0.17,0.14-0.36,0.25c-0.18,0.12-0.4,0.23-0.66,0.34c-0.27,0.11-0.57,0.2-0.91,0.28
	c-0.35,0.08-0.72,0.11-1.13,0.11c-0.7,0-1.34-0.12-1.91-0.35c-0.57-0.23-1.05-0.58-1.45-1.04c-0.4-0.46-0.71-1.02-0.92-1.69
	c-0.22-0.67-0.32-1.45-0.32-2.32c0-0.9,0.11-1.7,0.34-2.4c0.23-0.7,0.56-1.3,0.98-1.78c0.42-0.49,0.92-0.86,1.5-1.12
	s1.23-0.38,1.94-0.38c0.31,0,0.62,0.03,0.91,0.09c0.3,0.06,0.57,0.13,0.82,0.22s0.48,0.19,0.67,0.31c0.19,0.12,0.33,0.21,0.4,0.29
	s0.13,0.13,0.15,0.17c0.02,0.04,0.04,0.08,0.05,0.14c0.02,0.05,0.03,0.11,0.03,0.19c0.01,0.07,0.02,0.16,0.02,0.26
	c0,0.11-0.01,0.2-0.02,0.28c-0.01,0.08-0.02,0.14-0.05,0.19c-0.02,0.05-0.05,0.09-0.08,0.12s-0.07,0.04-0.11,0.04
	c-0.08,0-0.19-0.05-0.33-0.16s-0.32-0.23-0.54-0.36s-0.49-0.25-0.8-0.36c-0.32-0.11-0.7-0.16-1.14-0.16c-0.48,0-0.92,0.09-1.32,0.29
	c-0.4,0.19-0.73,0.47-1.02,0.85c-0.28,0.38-0.5,0.83-0.65,1.37c-0.15,0.54-0.23,1.15-0.23,1.84s0.07,1.29,0.22,1.82
	c0.15,0.52,0.36,0.97,0.64,1.32c0.28,0.36,0.62,0.62,1.02,0.8c0.4,0.18,0.86,0.27,1.37,0.27c0.43,0,0.81-0.05,1.13-0.16
	s0.59-0.23,0.82-0.36s0.41-0.25,0.56-0.36c0.14-0.11,0.26-0.16,0.34-0.16c0.04,0,0.07,0.01,0.1,0.03s0.05,0.05,0.07,0.1
	c0.02,0.04,0.03,0.11,0.04,0.2C110.79,54.25,110.79,54.36,110.79,54.49"/>
</svg>
