<svg xmlns="http://www.w3.org/2000/svg" width="610" height="209.546" viewBox="627.5 58.653 152.5 52.386"><g data-name="logolar-05.0021d1eb6db20107154524001e54102b"><path d="M647.767 77.857v18.867h-1.86a2.654 2.654 0 0 1-2.657-2.657c-.656.992-1.577 1.772-2.782 2.356-1.205.585-2.551.868-4.04.868-1.753 0-3.294-.407-4.658-1.222-1.365-.815-2.41-1.984-3.154-3.472-.744-1.489-1.116-3.242-1.116-5.227 0-2.002.39-3.755 1.17-5.297.779-1.541 1.877-2.728 3.294-3.56 1.418-.833 3.03-1.258 4.872-1.258 1.435 0 2.729.265 3.88.779 1.152.532 2.055 1.258 2.746 2.215a2.822 2.822 0 0 1 2.8-2.392h1.505Zm-6.289 13.535c.992-1.08 1.506-2.48 1.506-4.199 0-1.718-.478-3.1-1.453-4.145-.974-1.046-2.268-1.56-3.88-1.56s-2.905.532-3.88 1.577c-.974 1.046-1.452 2.445-1.452 4.164 0 1.718.496 3.118 1.47 4.18.975 1.064 2.25 1.595 3.827 1.595 1.559 0 2.852-.531 3.862-1.612Z" fill="#130d56" fill-rule="evenodd" data-name="Path 10366"/><path d="M663.198 77.857v4.057c-.514-.053-.886-.089-1.116-.089-1.701 0-2.994.479-3.915 1.418-.922.939-1.365 2.267-1.365 3.986v7.05a2.42 2.42 0 0 1-2.427 2.428h-2.303v-18.85h1.542a3.198 3.198 0 0 1 3.153 2.71c.283-.939.833-1.647 1.665-2.143.833-.496 1.843-.744 2.994-.744.62 0 1.205.07 1.772.177Z" fill="#130d56" fill-rule="evenodd" data-name="Path 10367"/><path d="M681.534 78.512c1.4.833 2.48 2.002 3.277 3.508.798 1.506 1.187 3.242 1.187 5.226 0 1.967-.39 3.72-1.187 5.244-.797 1.524-1.877 2.71-3.277 3.544-1.4.832-2.994 1.257-4.819 1.257-1.346 0-2.569-.23-3.685-.673-1.098-.46-1.984-1.098-2.622-1.949v13.022a2.695 2.695 0 0 1-1.93 2.569l-2.747.78V77.856h1.152a3.1 3.1 0 0 1 3.082 2.71c.674-1.027 1.613-1.824 2.817-2.409 1.205-.585 2.534-.886 4.004-.886 1.772-.017 3.348.408 4.748 1.24Zm-1.842 12.898c.974-1.063 1.452-2.445 1.452-4.128 0-1.719-.478-3.118-1.452-4.163-.975-1.046-2.25-1.577-3.827-1.577s-2.87.531-3.862 1.577c-.992 1.045-1.47 2.462-1.47 4.198 0 1.719.495 3.1 1.47 4.128.974 1.028 2.25 1.541 3.826 1.541 1.613.018 2.906-.513 3.863-1.576Z" fill="#130d56" fill-rule="evenodd" data-name="Path 10368"/><path d="M708.445 77.892v18.78a.038.038 0 0 1-.036.035h-1.948a2.533 2.533 0 0 1-2.534-2.534c0-.035-.053-.053-.07-.017-.638.939-1.542 1.7-2.711 2.25-1.205.584-2.551.868-4.04.868-1.753 0-3.295-.408-4.659-1.223-1.364-.815-2.41-1.984-3.153-3.472-.744-1.488-1.116-3.242-1.116-5.226 0-2.002.39-3.756 1.169-5.297.78-1.542 1.878-2.729 3.295-3.561 1.417-.833 3.03-1.258 4.872-1.258 1.435 0 2.728.266 3.88.78 1.116.513 2.02 1.222 2.675 2.143.018.035.07.018.07-.018a2.724 2.724 0 0 1 2.694-2.303h1.576c.018.018.036.036.036.053Zm-6.29 13.5c.993-1.08 1.506-2.48 1.506-4.199 0-1.718-.478-3.1-1.452-4.145-.975-1.046-2.268-1.56-3.88-1.56s-2.906.532-3.88 1.577c-.974 1.046-1.453 2.445-1.453 4.164 0 1.718.496 3.118 1.47 4.18.975 1.064 2.25 1.595 3.827 1.595s2.87-.531 3.863-1.612Z" fill="#130d56" fill-rule="evenodd" data-name="Path 10369"/><path d="M728.287 79.327c1.275 1.382 1.913 3.295 1.913 5.705v11.657s0 .018-.018.018h-2.25a2.495 2.495 0 0 1-2.498-2.498V86.13c0-3.065-1.257-4.606-3.755-4.606-1.347 0-2.392.39-3.136 1.17-.744.779-1.098 1.842-1.098 3.188v8.327a2.514 2.514 0 0 1-2.516 2.516h-2.162s-.017 0-.017-.018V77.875s0-.018.017-.018h1.648c1.311 0 2.41.957 2.622 2.25 0 .018.018.018.018 0 .584-.85 1.417-1.541 2.498-2.055 1.08-.532 2.267-.78 3.525-.78 2.197-.017 3.933.673 5.209 2.055Z" fill="#130d56" fill-rule="evenodd" data-name="Path 10370"/><path d="M751.123 77.857v17.627c0 .691-.55 1.24-1.24 1.24h-1.701a1.126 1.126 0 0 1-1.116-.956l-.213-1.417c-.673.956-1.523 1.7-2.533 2.196-1.01.496-2.144.744-3.42.744-2.232 0-3.95-.673-5.172-2.02-1.205-1.346-1.825-3.135-1.825-5.403v-8.982a3.01 3.01 0 0 1 3.012-3.011h1.718V89.07c0 1.435.337 2.463.992 3.118.656.656 1.595.957 2.817.957 1.205 0 2.179-.39 2.888-1.187.708-.797 1.063-1.86 1.063-3.207v-8.15a2.71 2.71 0 0 1 2.71-2.71h2.02Z" fill="#130d56" fill-rule="evenodd" data-name="Path 10371"/><g data-name="Group 35"><path d="M780 66.395c-.16.159-.248.283-.354.39-2.729 2.745-5.475 5.474-8.22 8.202-2.623 2.604-7.158 1.984-8.965-1.187-.018-.036-.035-.089-.053-.284.089.036.16.089.248.107 1.063.248 1.984-.036 2.746-.798 1.878-1.86 3.738-3.738 5.616-5.616 1.683-1.7 3.667-2.303 6.006-1.647.797.212 1.594.407 2.391.62.178.07.355.142.585.213Z" fill="#f84500" fill-rule="evenodd" data-name="Path 10372"/></g><g data-name="Group 36"><path d="M758.882 87.565c-.194-.708-.372-1.31-.531-1.913-.868-3.278-1.754-6.537-2.622-9.815-.921-3.472 1.594-6.98 5.155-7.21.16-.018.32-.053.461-.089.018.053.018.107.035.16-.053.106-.141.195-.212.3-.62.78-.85 1.666-.585 2.64.691 2.605 1.4 5.209 2.09 7.796.603 2.267.107 4.234-1.558 5.9l-2.233 2.231Z" fill="#ff5b00" fill-rule="evenodd" data-name="Path 10373"/></g><g data-name="Group 37"><path d="M751.123 58.653c1.559.407 3.03.797 4.482 1.187 2.374.637 4.73 1.293 7.104 1.895 3.756.975 5.563 5.315 3.526 8.575-.054-.106-.107-.195-.142-.284-.319-1.01-.992-1.647-2.002-1.913-1.967-.531-3.915-1.045-5.882-1.577-.815-.212-1.63-.407-2.427-.673-1.807-.602-3.065-1.807-3.667-3.632-.372-1.134-.638-2.32-.992-3.578Z" fill="#ff8000" fill-rule="evenodd" data-name="Path 10374"/></g><g data-name="Group 38"><path d="M702.209 105.246h-2.002v5.687h-.886v-5.687h-2.02v-.815h4.89v.815Z" fill="#130d56" fill-rule="evenodd" data-name="Path 10375"/><path d="M707.4 104.431h2.533c.726 0 1.275.177 1.665.514.39.336.585.815.585 1.435 0 .46-.106.85-.337 1.169-.23.319-.549.532-.956.656l1.293 2.728h-.975l-1.204-2.569h-1.736v2.569h-.886v-6.502Zm2.533 3.136c.425 0 .762-.107.974-.32.23-.212.337-.495.337-.85 0-.354-.124-.637-.354-.85-.23-.212-.567-.319-.993-.319h-1.647v2.339h1.683Z" fill="#130d56" fill-rule="evenodd" data-name="Path 10376"/><path d="M719.34 104.431h.975l2.427 6.502h-.94l-.584-1.63h-2.781l-.603 1.63h-.886l2.392-6.502Zm1.63 4.146-.585-1.613c-.194-.531-.319-.885-.39-1.08l-.159-.443c.018 0-.177.514-.549 1.523l-.602 1.595h2.285Z" fill="#130d56" fill-rule="evenodd" data-name="Path 10377"/><path d="m727.649 104.431 1.08 2.746.957 2.675c.089-.248.23-.673.443-1.24.213-.585.39-1.063.532-1.435l1.063-2.746h.939l-2.516 6.502h-.904l-2.533-6.502h.939Z" fill="#130d56" fill-rule="evenodd" data-name="Path 10378"/><path d="M738.668 105.246v2.037h2.835v.762h-2.835v2.073h3.136v.815h-4.021v-6.502h4.021v.815h-3.136Z" fill="#130d56" fill-rule="evenodd" data-name="Path 10379"/><path d="M750.963 110.136v.797h-3.596v-6.502h.886v5.705h2.71Z" fill="#130d56" fill-rule="evenodd" data-name="Path 10380"/></g></g></svg>