<?xml version="1.0" encoding="UTF-8"?>
<svg width="56px" height="56px" viewBox="0 0 56 56" version="1.1" xmlns="http://www.w3.org/2000/svg" xmlns:xlink="http://www.w3.org/1999/xlink">
    <title>Group 9</title>
    <defs>
        <filter id="filter-1">
            <feColorMatrix in="SourceGraphic" type="matrix" values="0 0 0 0 0.129412 0 0 0 0 0.129412 0 0 0 0 0.129412 0 0 0 1.000000 0"></feColorMatrix>
        </filter>
    </defs>
    <g id="Page-1" stroke="none" stroke-width="1" fill="none" fill-rule="evenodd">
        <g id="Group-9">
            <rect id="Rectangle-Copy-32" x="0" y="0" width="56" height="56"></rect>
            <g filter="url(#filter-1)" id="abdominoplasty">
                <g transform="translate(13.000000, 8.000000)">
                    <path d="M5.13427734,32.5357055 C5.23101805,32.7539062 5.44494625,32.8839111 5.66925047,32.8839111 C5.74829102,32.8839111 5.82855227,32.8677368 5.90545656,32.8335571 C6.20086672,32.7029419 6.33422852,32.3577881 6.20361328,32.062378 C6.04675297,31.7080688 5.89569094,31.3516235 5.75469969,31.003418 C5.63354492,30.7043457 5.29266359,30.5599976 4.99359133,30.6808472 C4.69421391,30.802002 4.5498657,31.1428833 4.67102047,31.4422608 C4.81658938,31.802063 4.97253422,32.1697998 5.13427734,32.5357055 L5.13427734,32.5357055 Z" id="Path" fill="#000000" fill-rule="nonzero"></path>
                    <path d="M6.59454344,35.5133056 C6.7001343,35.7098389 6.90185547,35.8218384 7.11029055,35.8218384 C7.20336914,35.8218384 7.29827883,35.7995605 7.38616945,35.7522583 C7.67059328,35.5996704 7.77740477,35.2450562 7.62481688,34.9606323 C7.44140625,34.6188355 7.26226805,34.274292 7.09167484,33.9367676 C6.94641109,33.6486816 6.59454344,33.53302 6.3064575,33.6782837 C6.01837156,33.8238525 5.90240477,34.175415 6.04797359,34.4635009 C6.22283938,34.8098755 6.40655516,35.1629639 6.59454344,35.5133056 L6.59454344,35.5133056 Z" id="Path" fill="#000000" fill-rule="nonzero"></path>
                    <path d="M8.64624023,36.7727661 C8.48205562,36.4947509 8.1237793,36.4025879 7.84576414,36.5664673 C7.56744383,36.7306519 7.47528078,37.0889282 7.63916016,37.3669434 C7.83630375,37.701416 8.04168703,38.0413819 8.24981687,38.3779907 C8.36029055,38.5568238 8.55163578,38.6553955 8.74755859,38.6553955 C8.85253906,38.6553955 8.95874023,38.6270141 9.05456547,38.5678101 C9.32922359,38.3981323 9.4140625,38.0380249 9.24438477,37.7633667 C9.04052734,37.4334717 8.83941648,37.1002197 8.64624023,36.7727661 L8.64624023,36.7727661 Z" id="Path" fill="#000000" fill-rule="nonzero"></path>
                    <path d="M3.08929445,26.1889648 C3.14086914,26.4706421 3.38684078,26.6680908 3.66333008,26.6680908 C3.69842531,26.6680908 3.73413086,26.6647339 3.76983641,26.6583252 C4.08752438,26.5997314 4.29748531,26.295166 4.2391968,25.977478 C4.16900633,25.5969238 4.11224367,25.2209473 4.06951906,24.8596191 C4.03198242,24.5388794 3.74206547,24.309082 3.42071531,24.347229 C3.10028078,24.3847656 2.87078859,24.675293 2.90863039,24.9960327 C2.95379641,25.3823852 3.01452641,25.7836914 3.08929445,26.1889648 Z" id="Path" fill="#000000" fill-rule="nonzero"></path>
                    <path d="M3.3996582,23.4121704 C3.71032719,23.4121704 3.96881102,23.1680298 3.9831543,22.8546142 C4.01397703,22.1871948 4.10522461,21.8414306 4.10858156,21.8283081 C4.1958618,21.519165 4.01702883,21.1968994 3.70788578,21.1077881 C3.39782719,21.0180664 3.07373047,21.1972046 2.98431398,21.5075684 C2.97088625,21.5539551 2.8527832,21.9830322 2.81524656,22.8009033 C2.80059813,23.1234741 3.04992672,23.3969116 3.37249758,23.4115601 C3.38165281,23.4121704 3.39080813,23.4121704 3.3996582,23.4121704 Z" id="Path" fill="#000000" fill-rule="nonzero"></path>
                    <path d="M3.93157961,29.4314575 C4.01245117,29.6774292 4.24102781,29.8333741 4.48669437,29.8333741 C4.54711914,29.8333741 4.60876469,29.8239136 4.66949461,29.803772 C4.97619625,29.7027587 5.14312742,29.3725586 5.04211422,29.065857 C4.9206543,28.6975098 4.80804445,28.329773 4.70703125,27.972107 C4.61944578,27.661438 4.29626469,27.4804687 3.9855957,27.5683594 C3.67492672,27.65625 3.49426266,27.9791259 3.58184812,28.2897949 C3.68743898,28.6633301 3.80493164,29.0475464 3.93157961,29.4314575 L3.93157961,29.4314575 Z" id="Path" fill="#000000" fill-rule="nonzero"></path>
                    <path d="M28.3499145,23.4121704 C28.3590698,23.4121704 28.3682251,23.4121704 28.3773804,23.4115601 C28.6999512,23.3969116 28.9492798,23.1234741 28.9343262,22.8009033 C28.8967895,21.9830322 28.7789917,21.5539551 28.765564,21.5075684 C28.6764527,21.1987305 28.3557129,21.0214234 28.0459595,21.1083984 C27.7365112,21.1956787 27.5558472,21.5179444 27.6409912,21.828003 C27.6422119,21.8313598 27.7352905,22.1774292 27.7664184,22.8543091 C27.7810669,23.1680298 28.0395508,23.4121704 28.3499145,23.4121704 L28.3499145,23.4121704 Z" id="Path" fill="#000000" fill-rule="nonzero"></path>
                    <path d="M27.0428467,27.972107 C26.9415283,28.3300781 26.8289184,28.6981202 26.7080688,29.0655517 C26.6067505,29.3722534 26.7736816,29.7027587 27.0800781,29.803772 C27.1408081,29.8239136 27.2024536,29.8333741 27.2631836,29.8333741 C27.5088501,29.8333741 27.7374267,29.6774292 27.8182984,29.4314575 C27.9446411,29.0478516 28.062439,28.6639405 28.1677246,28.2897949 C28.2556152,27.9791259 28.074646,27.6559448 27.763977,27.5683594 C27.4536133,27.4807739 27.1304321,27.661438 27.0428467,27.972107 Z" id="Path" fill="#000000" fill-rule="nonzero"></path>
                    <path d="M27.9800415,26.6583252 C28.015747,26.6647339 28.0511475,26.6680908 28.0862427,26.6680908 C28.3630371,26.6680908 28.6090087,26.4706421 28.6605835,26.1889648 C28.7350464,25.7830811 28.7957764,25.3817749 28.8412476,24.9960327 C28.8790894,24.675293 28.6495972,24.3847656 28.3288574,24.347229 C28.008728,24.3096923 27.7178955,24.5385742 27.6800537,24.859314 C27.6376343,25.2203369 27.5805664,25.5966187 27.5106812,25.9777832 C27.4523926,26.295166 27.6626587,26.6000366 27.9800415,26.6583252 L27.9800415,26.6583252 Z" id="Path" fill="#000000" fill-rule="nonzero"></path>
                    <path d="M25.994873,31.0037231 C25.8538819,31.3522339 25.703125,31.7083741 25.5462647,32.062378 C25.4153442,32.3577881 25.5490113,32.7029419 25.8441163,32.8335571 C25.9210205,32.8677368 26.0012817,32.8839111 26.0803223,32.8839111 C26.3046265,32.8839111 26.5185547,32.7539062 26.6152954,32.5357055 C26.7770386,32.1704102 26.9329834,31.8023681 27.0788574,31.4422608 C27.199707,31.1428833 27.0553589,30.8023071 26.7559814,30.6811523 C26.4569092,30.5599976 26.1160278,30.7043457 25.994873,31.0037231 Z" id="Path" fill="#000000" fill-rule="nonzero"></path>
                    <path d="M23.9041137,36.5664673 C23.6260986,36.4025879 23.2675171,36.4947509 23.1036377,36.7730713 C22.9101562,37.1008301 22.7087402,37.4337769 22.5054931,37.7630616 C22.3355102,38.0377197 22.4206543,38.3981323 22.6953125,38.5678101 C22.7911377,38.6270141 22.8973389,38.6553955 23.0023194,38.6553955 C23.197937,38.6553955 23.3892822,38.5568238 23.500061,38.3779907 C23.7078858,38.0419922 23.9132691,37.7017212 24.1107178,37.3669434 C24.2745972,37.0889282 24.1821289,36.7306519 23.9041137,36.5664673 L23.9041137,36.5664673 Z" id="Path" fill="#000000" fill-rule="nonzero"></path>
                    <path d="M24.6395874,35.8218384 C24.8480225,35.8218384 25.0497437,35.7098389 25.1550293,35.5133056 C25.3433227,35.1629639 25.5270386,34.8098755 25.7019043,34.4635009 C25.847168,34.175415 25.7315063,33.8238525 25.4434204,33.6782837 C25.1547241,33.5327148 24.8034668,33.6486816 24.657898,33.9367676 C24.487915,34.274292 24.3084717,34.6188355 24.125061,34.9606323 C23.972168,35.2450562 24.0792847,35.5993652 24.3637085,35.7519531 C24.4515991,35.7992554 24.5462036,35.8218384 24.6395874,35.8218384 L24.6395874,35.8218384 Z" id="Path" fill="#000000" fill-rule="nonzero"></path>
                    <path d="M10.0784302,29.163208 C9.8394775,28.946228 9.46960453,28.9645386 9.25292969,29.2037964 C9.03594969,29.4427491 9.05426023,29.812622 9.29321289,30.0292969 L10.0134277,30.6820679 L8.26568602,30.6820679 C7.94311523,30.6820679 7.68127438,30.9439087 7.68127438,31.2667847 C7.68127438,31.5896606 7.94311523,31.8511962 8.26568602,31.8511962 L10.0149536,31.8511962 L9.29382328,32.5036621 C9.05426023,32.7200317 9.03564453,33.0899048 9.25231938,33.3291626 C9.36767578,33.4570312 9.52667234,33.5217285 9.68597414,33.5217285 C9.82574461,33.5217285 9.96612547,33.4719848 10.078125,33.3706665 L11.9229126,31.7019653 C12.0455933,31.5911866 12.1154785,31.434021 12.1154785,31.2689209 C12.1154785,31.1038208 12.0458984,30.9463501 11.923523,30.8352661 L10.0784302,29.163208 Z" id="Path" fill="#000000" fill-rule="nonzero"></path>
                    <path d="M22.4560547,32.5036621 L21.7349243,31.8511962 L23.4841919,31.8511962 C23.8070679,31.8511962 24.0686035,31.5896606 24.0686035,31.2667847 C24.0686035,30.9439087 23.8070679,30.6820679 23.4841919,30.6820679 L21.7364502,30.6820679 L22.456665,30.0292969 C22.6956177,29.812622 22.7139282,29.4427491 22.4969483,29.2037964 C22.2802734,28.9645386 21.9107055,28.946228 21.6714477,29.163208 L19.826355,30.8355712 C19.7039795,30.9463501 19.6343994,31.1038208 19.6343994,31.2689209 C19.6343994,31.434021 19.7042847,31.5914917 19.8269653,31.7022705 L21.671753,33.3709717 C21.7837524,33.4719848 21.9238281,33.5220337 22.0639038,33.5220337 C22.2232055,33.5220337 22.3822022,33.4570312 22.4975586,33.3294678 C22.7142334,33.0899048 22.6953125,32.7203369 22.4560547,32.5036621 L22.4560547,32.5036621 Z" id="Path" fill="#000000" fill-rule="nonzero"></path>
                    <path d="M16.7919922,11.6296387 C16.8399048,11.6378784 16.8878173,11.6467285 16.93573,11.6564941 C17.2195434,11.7144775 17.4951172,11.8057251 17.7554321,11.9268798 C17.8353882,11.9641113 17.9193116,11.9818116 18.0020141,11.9818116 C18.2223511,11.9818116 18.4332275,11.8566895 18.5324097,11.643982 C18.6688233,11.3513184 18.5421753,11.0037231 18.2495117,10.8670044 C17.9064941,10.7073975 17.5436402,10.5874634 17.1704102,10.5111695 C17.1090698,10.4986572 17.0477295,10.4870605 16.9857788,10.4766845 C16.6674805,10.4229736 16.3659668,10.6378173 16.3122559,10.9561157 C16.2588501,11.2747192 16.4733887,11.5762329 16.7919922,11.6296387 Z" id="Path" fill="#000000" fill-rule="nonzero"></path>
                    <path d="M13.6947632,12.0916748 C13.7762452,12.0916748 13.859253,12.0742798 13.9382934,12.0382691 C14.1403198,11.9454956 14.3588257,11.862793 14.5877075,11.7922973 C14.7009277,11.7575073 14.8168945,11.7263794 14.9316406,11.6995239 C15.2462769,11.6265869 15.4418945,11.3122559 15.3686523,10.9976196 C15.2954102,10.6832886 14.9810791,10.4873657 14.666748,10.5609131 C14.5254516,10.593872 14.3832398,10.6320191 14.2440796,10.6747437 C13.9663696,10.7601929 13.6993408,10.8615112 13.4506226,10.975647 C13.1570434,11.1102295 13.0282593,11.4572144 13.163147,11.7504883 C13.2614136,11.9650269 13.4735108,12.0916748 13.6947632,12.0916748 Z" id="Path" fill="#000000" fill-rule="nonzero"></path>
                    <path d="M11.376648,14.3981934 C11.4334106,14.4152832 11.4901734,14.423523 11.5463257,14.423523 C11.7971802,14.423523 12.0291137,14.2605591 12.1057129,14.0081788 C12.2015381,13.6911011 12.3458862,13.3987427 12.5344848,13.1387329 C12.7236938,12.8771973 12.6654053,12.5115967 12.4041748,12.3220825 C12.1426391,12.1325684 11.7773437,12.1911621 11.5878296,12.4523926 C11.3226319,12.8179931 11.1206055,13.2275391 10.9866333,13.6694336 C10.8932495,13.9782715 11.0678101,14.3045044 11.376648,14.3981934 Z" id="Path" fill="#000000" fill-rule="nonzero"></path>
                    <path d="M19.670105,13.9331055 C19.7625733,14.1598511 19.9810791,14.2971802 20.211792,14.2971802 C20.2850342,14.2971802 20.3598023,14.2831421 20.4321289,14.2538452 C20.7312012,14.1317749 20.8746338,13.7905884 20.7528687,13.4918212 C20.5889892,13.0895996 20.3656006,12.7041626 20.0891113,12.3464966 C19.8916626,12.0910645 19.5245361,12.0440673 19.269104,12.2412109 C19.0136719,12.4386597 18.9663696,12.8057861 19.1638184,13.0615234 C19.3759155,13.3355712 19.5462036,13.6288452 19.670105,13.9331055 Z" id="Path" fill="#000000" fill-rule="nonzero"></path>
                    <path d="M3.99047852,3.12469484 C4.31335453,3.12469484 4.57519531,2.86285398 4.57519531,2.53997805 L4.57519531,0.584716797 C4.57519531,0.261840781 4.31335453,0.000305175781 3.99047852,0.000305175781 C3.6676025,0.000305175781 3.40606688,0.261840781 3.40606688,0.584716797 L3.40606688,2.53997805 C3.40606688,2.86285398 3.6676025,3.12469484 3.99047852,3.12469484 Z" id="Path" fill="#000000" fill-rule="nonzero"></path>
                    <path d="M31.1993408,19.1879273 C31.0983277,18.8323975 30.9823609,18.4817505 30.8520508,18.137207 C30.1327515,16.2380981 28.9990234,14.5617676 27.87323,12.9055786 C27.1163941,11.7913819 26.3858032,10.7159423 25.7910156,9.58831789 C26.388855,9.54376219 27.064209,9.34295656 27.6080322,8.77929688 C28.0639648,8.30657961 28.3148194,7.66784672 28.3148194,6.98089602 L28.3148194,0.584716797 C28.3148194,0.261840781 28.0529785,-3.07654218e-05 27.7301025,-3.07654218e-05 C27.4072266,-3.07654218e-05 27.1456909,0.261840781 27.1456909,0.584716797 L27.1456909,6.98089602 C27.1456909,7.35809328 27.0074462,7.71789547 26.7666626,7.9675293 C26.3320923,8.41766359 25.6948852,8.45947266 25.2365112,8.4158325 C25.1068116,8.10485844 24.987793,7.78869625 24.8843384,7.46429445 C24.1461181,5.15228273 24.0252686,2.76031492 24.5440673,0.729370156 C24.6240234,0.416564922 24.4351196,0.0982665625 24.1223145,0.0183105469 C23.8101196,-0.0616454688 23.4912109,0.127258281 23.4112548,0.440063437 C22.8390503,2.68066406 22.9666138,5.30151367 23.7704468,7.81982422 C24.4491577,9.94598391 25.6982422,11.784668 26.9064331,13.562622 C26.9210816,13.5845947 26.9360352,13.6065673 26.9509887,13.62854 C24.5611572,14.4741821 21.918335,15.0540161 20.0466919,15.4013062 C19.7293091,15.4602051 19.5196533,15.7653809 19.5785523,16.0827637 C19.6374512,16.4004516 19.9420166,16.6098023 20.2600098,16.5509033 C22.2473145,16.1819458 25.0885009,15.5557251 27.6242066,14.6289062 C28.4387207,15.8587647 29.2114258,17.1331788 29.7244262,18.4967041 C29.7564697,18.5818481 29.7875977,18.6672973 29.8178101,18.753357 C29.6868897,18.3813477 24.0423584,20.0906372 23.5415649,20.309143 C21.6696167,21.1260986 20.0457764,22.2473145 18.8461304,23.5510254 C17.5753784,24.9322509 16.6101074,26.1779785 15.8666992,27.4029541 C15.1229859,26.1779785 14.1577148,24.9322509 12.8869629,23.5510254 C11.6870117,22.2470093 10.0631714,21.1257934 8.19061281,20.3085327 C6.97692875,19.7790527 5.61340328,19.4448852 4.33044437,19.143982 C4.12963867,19.0966797 1.93511961,18.6712647 1.90124516,18.7506103 C1.92504883,18.6837769 1.94976805,18.6169434 1.97509766,18.550415 C2.07275391,18.2925415 3.7686157,14.5098877 4.09545898,14.6240234 C6.63452148,15.5535889 9.48242187,16.1813355 11.4730835,16.5509033 C12.4349976,16.7297363 13.1756592,16.8457031 13.8748169,16.9274902 C15.0231934,17.0614624 16.2216187,17.0672608 17.538147,16.9442749 C17.859497,16.9143677 18.0957031,16.6293335 18.0657959,16.3079834 C18.0358887,15.9866333 17.7502441,15.750122 17.4295044,15.7800293 C16.1953735,15.8953858 15.0769043,15.890503 14.0106202,15.7659913 C13.3383179,15.687561 12.6217652,15.5749512 11.6864014,15.4013062 C9.81140141,15.0534058 7.16217039,14.4720459 4.76867672,13.6236572 C4.78240969,13.6035156 4.79644773,13.5830688 4.81018062,13.562622 C6.01837156,11.784668 7.26745609,9.94598391 7.94616703,7.81982422 C8.75,5.30181883 8.87756344,2.68096922 8.30535891,0.440063437 C8.22570797,0.127258281 7.90740969,-0.0613403125 7.5942993,0.0183105469 C7.28149414,0.0982665625 7.09259031,0.416564922 7.17254641,0.729370156 C7.69134523,2.76031492 7.57019047,5.15228273 6.83227539,7.46429445 C6.72882078,7.78869625 6.60980227,8.10516359 6.47979734,8.41613766 C6.02172852,8.4591675 5.38696289,8.41613766 4.95391844,7.9675293 C4.71313477,7.71759031 4.57489016,7.35809328 4.57489016,6.98059078 L4.57489016,5.28778078 C4.57489016,4.96490477 4.3130493,4.70306398 3.99017336,4.70306398 C3.6676025,4.70306398 3.40576172,4.96490477 3.40576172,5.28778078 L3.40576172,6.98089602 C3.40576172,7.66784672 3.65661625,8.30657961 4.11224367,8.77929687 C4.65515141,9.34173586 5.3286743,9.54284672 5.92590328,9.5877075 C5.33081055,10.7156372 4.60021969,11.7913819 3.84307859,12.9055786 C3.69018555,13.1304931 3.53698734,13.3566284 3.38378906,13.5839844 C3.38348391,13.5845947 3.38287352,13.5852051 3.3822632,13.5858155 C3.09295656,14.0130616 2.7920532,14.4692993 2.49542234,14.9499512 C0.241088906,18.6004639 -0.609130859,22.8616333 0.455627422,27.0620727 C0.981750469,29.1360473 2.03155516,31.2286377 2.93640141,33.1570434 C3.98376469,35.3881836 5.078125,37.5997925 6.34552,39.7158813 C6.45507812,39.8986816 6.64886477,40 6.84753422,40 C6.94976805,40 7.05352781,39.9731445 7.14752195,39.9169922 C7.42462156,39.7509766 7.51464844,39.3920898 7.34863281,39.1149902 C5.91979984,36.7291259 4.71771242,34.2199707 3.54736328,31.6998291 C2.84942625,30.1971436 1.99829102,28.3843994 1.58905031,26.7739868 C1.00891109,24.4857788 1.00494383,22.0861816 1.56097414,19.8782348 C1.6983032,19.5144653 7.46856687,21.2692261 7.72308352,21.3803101 C9.44763187,22.1328735 10.9356689,23.1573486 12.0266723,24.3429566 C13.5055542,25.9503173 14.5449829,27.3544312 15.2902222,28.7521363 L15.2902222,39.4152832 C15.2902222,39.7381592 15.552063,40 15.874939,40 C16.1978149,40 16.4593506,39.7381592 16.4593506,39.4152832 L16.4593506,28.7219238 C17.2036743,27.3339844 18.2382202,25.9384155 19.7067261,24.3429566 C20.7965087,23.1582641 22.2836304,22.1343994 24.006958,21.3818359 C24.5922852,21.1260986 25.2017212,20.9368897 25.8200073,20.7797241 C26.2991333,20.6576538 30.1220703,19.7457886 30.15625,19.8809814 C30.7113648,22.0858765 30.7077027,24.4818116 30.1290894,26.7675781 C29.6380616,28.7091064 28.7576294,30.2862548 27.9849243,32.0962524 C26.9577027,34.5031738 25.7119751,36.8710327 24.3679809,39.1149902 C24.2019653,39.3920898 24.2919922,39.7509766 24.5690918,39.9169922 C24.6630859,39.9731445 24.7665405,40 24.8687744,40 C25.0677491,40 25.2615356,39.8986816 25.3707886,39.7158813 C26.6677856,37.5506592 27.782898,35.2859497 28.8525391,33.0020141 C29.7695923,31.0440063 30.725708,29.1732788 31.2609863,27.0614624 C31.9055176,24.5181274 31.923523,21.7312622 31.1993408,19.1879273 L31.1993408,19.1879273 Z" id="Path" fill="#000000" fill-rule="nonzero"></path>
                </g>
            </g>
        </g>
    </g>
</svg>