<?xml version="1.0" encoding="UTF-8"?>
<svg width="56px" height="56px" viewBox="0 0 56 56" version="1.1" xmlns="http://www.w3.org/2000/svg" xmlns:xlink="http://www.w3.org/1999/xlink">
    <title>Group 6</title>
    <defs>
        <filter id="filter-1">
            <feColorMatrix in="SourceGraphic" type="matrix" values="0 0 0 0 0.129412 0 0 0 0 0.129412 0 0 0 0 0.129412 0 0 0 1.000000 0"></feColorMatrix>
        </filter>
    </defs>
    <g id="Page-1" stroke="none" stroke-width="1" fill="none" fill-rule="evenodd">
        <g id="Group-6">
            <rect id="Rectangle-Copy-33" x="0" y="0" width="56" height="56"></rect>
            <g filter="url(#filter-1)" id="molar">
                <g transform="translate(11.000000, 10.000000)">
                    <path d="M26.3445,36 C26.271,36 26.199,35.9955 26.13,35.985 C25.0125,35.811 24.096,34.4745 23.823,33.6255 C23.481,32.55 23.2905,31.4385 23.1045,30.3645 C23.001,29.7705 22.8975,29.1765 22.77,28.59 C22.6905,28.242 22.617,27.8835 22.545,27.525 C22.317,26.406 22.0995,25.3515 21.678,24.399 C20.997,22.836 19.989,21.882 18.5025,21.3945 C17.214,20.9715 15.789,20.9715 14.5005,21.3945 L14.2665,20.682 L14.5005,21.3945 C13.014,21.882 12.006,22.8345 11.3265,24.3945 C10.9035,25.3515 10.686,26.4075 10.458,27.525 C10.3845,27.8835 10.311,28.242 10.2315,28.596 C10.1055,29.1765 10.0035,29.7705 9.8985,30.3645 C9.7125,31.4385 9.5205,32.5515 9.18,33.624 C8.907,34.4745 7.9905,35.811 6.8865,35.9835 C5.8425,36.1185 4.4265,35.193 3.9765,34.329 C1.926,30.1155 1.404,26.5095 2.325,22.959 C2.571,21.9765 3.036,20.9265 3.702,19.8435 C4.1715,19.0785 4.1595,18.579 3.654,17.865 C2.106,15.6945 0.348,13.23 0.069,10.071 C-0.1305,7.7745 -0.069,4.4565 2.739,2.1495 C5.319,0.021 8.0805,-0.54 10.728,0.534 C11.55,0.87 12.7425,1.3665 13.9005,1.848 C15.5535,2.5365 17.448,2.538 19.101,1.848 C20.2575,1.3665 21.45,0.87 22.275,0.534 C24.9195,-0.5385 27.6825,0.0195 30.2655,2.151 C33.072,4.458 33.1335,7.776 32.934,10.071 C32.655,13.23 30.8985,15.696 29.3475,17.8695 C28.8435,18.5805 28.8315,19.0815 29.3025,19.848 C29.967,20.928 30.432,21.978 30.6795,22.968 C31.599,26.5095 31.0785,30.117 29.0355,34.311 C28.6065,35.133 27.3405,36 26.3445,36 Z M16.5,19.5765 C17.337,19.5765 18.1725,19.707 18.969,19.968 C20.8635,20.5905 22.1985,21.8415 23.049,23.7945 C23.535,24.891 23.778,26.0775 24.0135,27.2235 C24.0855,27.573 24.156,27.921 24.2325,28.2645 C24.3675,28.878 24.474,29.4915 24.579,30.108 C24.765,31.1805 24.9405,32.1945 25.251,33.171 C25.4535,33.7995 26.082,34.461 26.346,34.503 C26.571,34.548 27.477,34.0515 27.6945,33.636 C29.562,29.8005 30.0495,26.523 29.223,23.34 C29.0115,22.4925 28.608,21.585 28.0215,20.634 C27.24,19.356 27.273,18.2025 28.122,17.001 C29.634,14.8815 31.1955,12.693 31.437,9.9405 C31.71,6.7875 31.053,4.743 29.3085,3.309 C27.1455,1.5255 24.969,1.0575 22.8375,1.9245 C22.0155,2.259 20.829,2.751 19.6755,3.2325 C17.6565,4.0755 15.339,4.0755 13.3215,3.2325 C12.1665,2.751 10.98,2.259 10.1595,1.9245 C8.0295,1.0575 5.85,1.5255 3.69,3.309 C1.944,4.743 1.287,6.789 1.56,9.942 C1.8015,12.6915 3.363,14.88 4.8735,16.998 C5.724,18.2025 5.757,19.356 4.977,20.631 C4.389,21.5835 3.9855,22.4925 3.7755,23.3325 C2.946,26.523 3.4335,29.8005 5.31,33.6555 C5.52,34.05 6.3795,34.5435 6.6645,34.5 C6.9165,34.461 7.545,33.7995 7.7475,33.168 C8.058,32.193 8.2335,31.1805 8.4195,30.1065 C8.5245,29.4915 8.6325,28.8765 8.7645,28.269 C8.844,27.9195 8.9145,27.5715 8.985,27.222 C9.219,26.076 9.462,24.8895 9.951,23.7885 C10.7985,21.84 12.135,20.589 14.0295,19.9665 C14.8275,19.707 15.663,19.5765 16.5,19.5765 L16.5,19.5765 Z" id="Shape" fill="#000000" fill-rule="nonzero"></path>
                    <path d="M16.5,31.5 C15.2835,31.5 14.2185,30.6315 13.9665,29.4345 L12.3615,21.3405 L13.8315,21.0495 L15.435,29.1345 C15.54,29.6325 15.9885,30 16.5,30 C17.0115,30 17.46,29.6325 17.5665,29.1255 L19.1685,21.0495 L20.6385,21.3405 L19.035,29.4255 C18.7815,30.6315 17.7165,31.5 16.5,31.5 L16.5,31.5 Z" id="Path" fill="#000000" fill-rule="nonzero"></path>
                </g>
            </g>
        </g>
    </g>
</svg>