<?xml version="1.0" encoding="UTF-8"?>
<svg width="56px" height="56px" viewBox="0 0 56 56" version="1.1" xmlns="http://www.w3.org/2000/svg" xmlns:xlink="http://www.w3.org/1999/xlink">
    <title>Group 13</title>
    <defs>
        <filter id="filter-1">
            <feColorMatrix in="SourceGraphic" type="matrix" values="0 0 0 0 0.129412 0 0 0 0 0.129412 0 0 0 0 0.129412 0 0 0 1.000000 0"></feColorMatrix>
        </filter>
    </defs>
    <g id="Page-1" stroke="none" stroke-width="1" fill="none" fill-rule="evenodd">
        <g id="Group-13">
            <rect id="Rectangle-Copy-28" x="0" y="0" width="56" height="56"></rect>
            <g filter="url(#filter-1)" id="stomach">
                <g transform="translate(10.000000, 13.000000)">
                    <path d="M23.9999766,0.046828125 C21.4254844,0.046828125 18.718875,1.48640625 17.3716172,4.54689844 L16.4999531,4.54689844 C14.8462031,4.54689844 13.5,3.20139844 13.5,1.546875 C13.5,1.36525781 13.4340469,1.18947656 13.3139531,1.05321094 C13.2245859,0.949921875 12.3793594,0.046828125 10.4999766,0.046828125 C8.62059375,0.046828125 7.77536719,0.949921875 7.686,1.05321094 C7.56590625,1.18947656 7.49995313,1.36525781 7.49995313,1.546875 C7.49995313,6.50974219 11.5370859,10.546875 16.4999531,10.546875 L16.7939297,10.546875 C17.0924766,11.3696719 17.6027344,12.108375 18.3207656,12.641625 C18.15525,13.2473672 18.0717188,13.8501562 18.0717188,14.4390234 C18.0717188,15.3494297 18.2533359,16.2407812 18.6136875,17.0969766 C17.685,17.6272734 16.9906641,18.5076562 16.6859297,19.5476484 C14.4857109,19.5725391 12.7908984,20.0325234 11.7362109,20.8477266 C10.8792422,20.3430937 9.04380469,19.5469453 5.99990625,19.5469453 C2.2426875,19.546875 0,23.1913828 0,29.2968984 C0,29.7114609 0.335460938,30.0469922 0.750023438,30.0469922 L3.75004688,30.0469922 C4.16460938,30.0469922 4.50007031,29.7114609 4.50007031,29.2968984 C4.50007031,26.001 5.22077344,25.5469219 6.00004688,25.5469219 C6.56254688,25.5469219 6.67096875,25.6845937 6.9316875,26.0171719 C7.25392969,26.4273047 7.74028125,27.0469687 9.00007031,27.0469687 L10.9820391,27.0469687 C11.8536328,27.7325156 15.1173281,30.0469922 19.5001172,30.0469922 C25.2070312,30.0469922 36,26.9121094 36,15.046875 C36,2.74148437 27.3384141,0.046828125 23.9999766,0.046828125 Z M16.5000234,9.04689844 C12.4834219,9.04689844 9.19335938,5.87257031 9.00878906,1.9006875 C9.25340625,1.75057031 9.72949219,1.54694531 10.4999766,1.54694531 C11.2997813,1.54694531 11.7817031,1.76667187 12.0146484,1.91313281 C12.2021719,4.22395312 14.1416016,6.04694531 16.5000234,6.04694531 L16.8551719,6.04694531 C16.6291875,6.94216406 16.5000234,7.93828125 16.5000234,9.04689844 Z M19.4999766,28.546875 C15.0424453,28.546875 11.7743906,25.7592656 11.7421875,25.7307188 C11.6059219,25.6128047 11.4301406,25.5468516 11.25,25.5468516 L9,25.5468516 C8.46970313,25.5468516 8.36571094,25.4135391 8.11230469,25.0905234 C7.78563281,24.6745547 7.29196875,24.046875 5.99997656,24.046875 C3.4115625,24.046875 3.05564063,26.7861094 3.00726563,28.546875 L1.51467188,28.546875 C1.61135156,26.0940234 2.26757813,21.0468516 6.00004688,21.0468516 C8.4931875,21.0468516 10.0254375,21.6342422 10.7695547,22.0260937 C10.5922969,22.4106328 10.5000469,22.8353906 10.5000469,23.2968516 C10.5000469,23.7114141 10.8355078,24.046875 11.2500703,24.046875 C11.6646328,24.046875 12.0000938,23.7114141 12.0000938,23.2968516 C12.0000938,22.9313672 12.1216641,22.6179141 12.3385078,22.3512891 C12.3517266,22.3380703 12.364875,22.3242188 12.3780938,22.3095234 C12.3941953,22.2904687 12.4102969,22.2707109 12.4249922,22.2509531 C13.2408984,21.3808359 15.1041797,21.0468516 16.8752109,21.0468516 C16.9352578,21.0468516 16.9938984,21.0534609 17.0524688,21.0585937 L17.2560937,21.0739922 C17.6384531,21.1040156 17.9900156,20.8022344 18.0353672,20.4126328 C18.1584141,19.3689141 18.8718047,18.4936641 19.8532266,18.1823906 C20.0671172,18.1142578 20.2399453,17.953875 20.3234766,17.7451172 C20.4055312,17.5363594 20.3908359,17.3012344 20.2824844,17.1042187 C19.8108281,16.2523828 19.5720469,15.3558984 19.5720469,14.4389531 C19.5720469,13.8288516 19.6848281,13.21875 19.9148203,12.5741953 C20.0393438,12.2269922 19.8928125,11.8410469 19.5690938,11.6637891 C18.6006094,11.1327891 18,10.1301328 18,9.04689844 C18,3.89355469 21.1098516,1.546875 23.9999766,1.546875 C26.9208984,1.546875 34.4999531,3.97195313 34.4999531,15.046875 C34.4999531,25.7255859 24.6884766,28.546875 19.4999766,28.546875 Z" id="Shape" fill="#000000" fill-rule="nonzero"></path>
                </g>
            </g>
        </g>
    </g>
</svg>