<svg xmlns="http://www.w3.org/2000/svg" width="693.927" height="694.779" viewBox="676.943 -10.195 173.482 173.695"><g data-name="Group 42"><g data-name="Group 39"><path d="M850.425 36.315c-.958.958-1.49 1.703-2.129 2.342-16.39 16.497-32.887 32.887-49.383 49.277-15.752 15.646-42.998 11.92-53.854-7.13-.107-.213-.213-.533-.32-1.703.533.212.958.532 1.49.638 6.386 1.49 11.92-.213 16.497-4.79 11.282-11.174 22.457-22.456 33.739-33.738 10.11-10.217 22.03-13.836 36.08-9.898 4.79 1.277 9.578 2.448 14.368 3.725 1.064.426 2.128.852 3.512 1.277Z" fill="#f84500" fill-rule="evenodd" data-name="Path 10372"/></g><g data-name="Group 40"><path d="M723.56 163.5c-1.17-4.257-2.235-7.876-3.193-11.495-5.215-19.69-10.536-39.272-15.752-58.962-5.534-20.86 9.58-41.934 30.972-43.317.958-.107 1.915-.32 2.767-.532.106.319.106.638.213.957-.32.639-.852 1.171-1.277 1.81-3.726 4.683-5.11 10.004-3.513 15.858 4.151 15.645 8.408 31.29 12.56 46.83 3.618 13.622.638 25.436-9.367 35.44L723.56 163.5Z" fill="#ff5b00" fill-rule="evenodd" data-name="Path 10373"/></g><g data-name="Group 41"><path d="M676.943-10.195c9.366 2.448 18.2 4.79 26.927 7.131 14.262 3.832 28.417 7.77 42.679 11.388 22.563 5.854 33.419 31.93 21.18 51.513-.32-.639-.64-1.171-.852-1.703-1.916-6.067-5.96-9.898-12.027-11.495-11.814-3.193-23.52-6.28-35.335-9.472-4.896-1.277-9.791-2.448-14.58-4.044-10.856-3.62-18.413-10.856-22.032-21.819-2.235-6.811-3.831-13.942-5.96-21.499Z" fill="#ff8000" fill-rule="evenodd" data-name="Path 10374"/></g></g></svg>